<svg xmlns="http://www.w3.org/2000/svg" xmlns:xlink="http://www.w3.org/1999/xlink" viewBox="0 0 567.84 195.97"><defs><linearGradient id="Безымянный_градиент_3" x1="381.99" y1="97.87" x2="567.84" y2="97.87" gradientUnits="userSpaceOnUse"><stop offset="0" stop-color="#15bd8e"/><stop offset="1" stop-color="#01baef"/></linearGradient></defs><g id="Слой_2" data-name="Слой 2"><g id="Слой_1-2" data-name="Слой 1"><path d="M567.8,152.73a2.62,2.62,0,0,0-2-2.77,8,8,0,0,1-5.38-5.1q-1.73-4.83-3.49-9.65c-.46-1.26.09-1.74,1.29-1.73,2.51,0,5,0,7.53.12,1.57.09,2.13-.51,2.12-2-.06-5.62,0-11.24-.07-16.86a12.61,12.61,0,0,0-7.14-11.48A108.22,108.22,0,0,0,541,95.55c-11.05-3.37-22.32-5.94-34-6a2.46,2.46,0,0,1-2.53-1.8c-2.3-6.17-4.48-12.39-7-18.46-1-2.48-1.17-5.36-3.39-7.39-.85-.76.09-1.57,1.1-1.63,1.52-.1,3-.07,4.56-.1.39,0,.85,0,1-.45a.87.87,0,0,0-.56-1.13c-1.24-.34-2.09-1.31-3.26-1.81-4.88-2.09-10-2.42-15.16-2.22a3.08,3.08,0,0,1-3.15-1.86C476.3,48.44,474,44.21,471.67,40c-5.33-9.39-12.11-17.44-21.24-23.44A78.62,78.62,0,0,0,425.78,6.27a169.5,169.5,0,0,0-18.1-3.16c-7.9-1.06-15.8-1-23.71-1.36-1.64-.08-2.25.55-1.88,2.29,1,4.65,2.21,9.24,3.21,13.88.95,4.44,1.95,8.88,3.1,13.28,1.23,4.72,2.37,9.47,3.38,14.22,1.47,6.83,3.24,13.59,4.63,20.44s3.28,13.57,4.85,20.37c1.32,5.72,2.49,11.46,4,17.13.66,2.42,1.15,4.88,1.69,7.33,1.11,5,2.17,10,3.31,15.06s2.35,10.14,3.63,15.18a2.94,2.94,0,0,1-1.45,3.5q-3.31,2.31-6.59,4.68l-15.59,11.42c-.55.4-1.63.5-1.34,1.45s1.24.54,1.93.54q39.66,0,79.32,0c2.18,0,4.37,0,6.55,0,1.23,0,1.74-.47,1.84-1.74a34.13,34.13,0,0,1,6.65-18.32,31.32,31.32,0,0,1,19.72-12.55c11.91-2.16,22.27,1.19,30.56,10.29a30.91,30.91,0,0,1,7.94,27.62c-1.49,8.09-5.36,15.06-12.31,20a31.28,31.28,0,0,1-8.82,4.76c-.49.15-1.28.12-1.23.73.06.82.91.51,1.45.6,2.15.37,4-.76,5.94-1.27,7.67-2,13.52-6.68,18.15-12.89a36.41,36.41,0,0,0,6.84-19.28c.1-1.36.6-2.06,2.08-2,1.71.08,3.44,0,5.15,0v0c.93,0,1.86,0,2.78,0,4.79-.1,4.33.37,4.31-4.24C567.78,153.79,567.8,153.26,567.8,152.73ZM434.45,86.5c0,1.91-.91,2.78-2.83,2.82s-4.09,0-6.14,0-3-1-3.05-3.06q0-7.53,0-15.06a2.9,2.9,0,0,1,3.11-3.09q3-.08,5.94,0c2,.06,3,1.09,3,3.14,0,2.51,0,5,0,7.53S434.51,83.93,434.45,86.5Zm11.22-33.33a3.85,3.85,0,0,1-3.73,2.44c-4.69,0-9.37,0-14.06,0h0c-4.43,0-8.85,0-13.27,0-3.25,0-4.79-1.63-4.82-4.93,0-2.11-.06-4.22,0-6.33a4.41,4.41,0,0,1,4.79-4.63c6.61,0,13.21,0,19.81,0a4.25,4.25,0,0,1,3.32,1.5c2.42,2.69,4.86,5.37,7.18,8.15A3.36,3.36,0,0,1,445.67,53.17Zm52.18,47.12c-6.46,0-13,.5-19.34-1.06-2.43-.6-4.85-1.22-7.28-1.77-5.06-1.15-10.12-2.26-15.18-3.39a4.15,4.15,0,0,1-3.65-4.43c0-6.54,0-13.09,0-19.63,0-3.17,1.71-4.85,4.94-4.87,6.54,0,13.08,0,19.62,0v-.37c2.65,0,5.29,0,7.93,0A7.52,7.52,0,0,1,492,69.34c1.32,2.74,1.79,5.76,2.63,8.66.79,2.72,1.51,5.46,2.28,8.19,1.07,3.79,2.23,7.57,3.22,11.38C500.58,99.52,499.91,100.31,497.85,100.29Z" fill="url(#Безымянный_градиент_3)"/><path d="M495.79,162c-.46-8.67,7.11-15.69,15.12-15.72,9.25,0,15.8,6.49,16,15.43a15.63,15.63,0,0,1-15.69,15.9A15.4,15.4,0,0,1,495.79,162Z" fill="#4d4d4d"/><path d="M143.44,179.08c0-2.83,0-2.84,3.1-2.81,2.17,0,3.76,1.26,3.74,2.92,0,1.87-1.76,3.12-4.32,3.1C143.82,182.27,143.42,181.76,143.44,179.08Z" fill="#fdfdfd"/><path d="M0,1.08V155.37H35.29V20.88H65.57V1.08Z" fill="#4d4d4d"/><path d="M153.76,6.46Q143.13,1.08,121.2,1.08H84.35V155.37h34.18V98.56Q147,99,155.71,92.7t8.68-21.47V28.41Q164.39,11.83,153.76,6.46ZM130.22,68.33q0,8.17-11.69,8.17V23.14q11.68,0,11.69,8.17Z" fill="#4d4d4d"/><path d="M238.17,1.08,227.7,74.89,213.34,1.08H180.5l29.39,122.33a23.89,23.89,0,0,1,.78,4.2c0,3.8-1,6.12-3.12,6.94s-7.2,1.24-15.36,1.24v19.79h21.38q13,0,19.87-5.91t10-21.2L269.23,1.08Z" fill="#4d4d4d"/><path d="M348.57,73.38q18.15-5.91,18.15-24.85V27.33q0-14.41-11.56-20.87T327.7,0q-39.13,0-39.13,27.33V56h31.06V27.55q0-4.64,6.57-4.63,6.35,0,6.34,4.63V54.88q0,9-15,9V81.34q8.46,0,11.75,2.26t3.28,8.29v35.72q0,5.7-6.34,5.7t-6.35-5.7V91H287.68v36.8q0,29.27,40.07,29.26,39.53,0,39.53-32.17V102Q367.28,78.12,348.57,73.38Z" fill="#4d4d4d"/><path d="M15.65,174,9.81,187.25,3.4,174H1.12l7.64,15.71-.44,1a5.11,5.11,0,0,1-1.92,2.42,4.58,4.58,0,0,1-2.94.51v2a6.66,6.66,0,0,0,4.26-1,8.21,8.21,0,0,0,2.82-3.74L17.94,174Z" fill="#4d4d4d"/><path d="M42.4,174v10.48a13.66,13.66,0,0,1-6,1.39,5,5,0,0,1-3.49-1.13,3.84,3.84,0,0,1-1.27-3V174H29.39v7.73a5.74,5.74,0,0,0,1.91,4.45,7.29,7.29,0,0,0,5.07,1.73,13.66,13.66,0,0,0,6-1.39v9.12h2.22V174Z" fill="#4d4d4d"/><path d="M61,193.56v-7.85h9.84v-2H61V176H71.63v-2H58.78V195.6h13v-2Z" fill="#4d4d4d"/><path d="M82.77,174v2h6.82v19.6h2.22V176h6.83v-2Z" fill="#4d4d4d"/><path d="M125.17,174v9.49H113.11V174h-2.23V195.6h2.23V185.49h12.06V195.6h2.22V174Z" fill="#4d4d4d"/><path d="M150.14,174h-2.28l-8.54,21.64h2.35l2.06-5.32h10.54l2.06,5.32h2.35Zm-5.62,14.28L149,176.65l4.47,11.59Z" fill="#4d4d4d"/><path d="M176.32,174a6.53,6.53,0,0,0-4.73,1.92,6.13,6.13,0,0,0-1.93,4.57,6.26,6.26,0,0,0,1.58,4.21,6.63,6.63,0,0,0,4,2.19L169,195.6h2.54l6.09-8.65H183v8.65h2.22V174ZM183,184.9h-6.67a4.3,4.3,0,0,1-3.14-1.29,4.42,4.42,0,0,1-1.3-3.16,4.34,4.34,0,0,1,1.3-3.15,4.27,4.27,0,0,1,3.14-1.3H183Z" fill="#4d4d4d"/><path d="M216.37,174V195.6h2.22V176H230v19.6h2.22V174Z" fill="#4d4d4d"/><path d="M259.31,175.91a6.88,6.88,0,0,0-5-1.95h-7.93V195.6h2.22v-8h5.71a6.91,6.91,0,0,0,5-1.94,6.89,6.89,0,0,0,0-9.71Zm-1.59,8.28a4.6,4.6,0,0,1-3.4,1.33h-5.71V176h5.71a4.83,4.83,0,0,1,3.4,8.19Z" fill="#4d4d4d"/><path d="M292.41,176.87a11.79,11.79,0,0,0-16.32,0,10.62,10.62,0,0,0-3.33,7.91,10.82,10.82,0,0,0,3.33,7.95,11.9,11.9,0,0,0,16.32,0,10.82,10.82,0,0,0,3.33-7.95A10.62,10.62,0,0,0,292.41,176.87Zm-1.56,14.37a9.6,9.6,0,0,1-13.2,0,9.11,9.11,0,0,1,0-12.89,9.52,9.52,0,0,1,13.2,0,9.11,9.11,0,0,1,0,12.89Z" fill="#4d4d4d"/><path d="M308.62,174V195.6h2.22V176H321v-2Z" fill="#4d4d4d"/><path d="M346.16,175.91a6.84,6.84,0,0,0-5-1.95h-7.93V195.6h2.22v-8h5.71a6.87,6.87,0,0,0,5-1.94,6.89,6.89,0,0,0,0-9.71Zm-1.58,8.28a4.61,4.61,0,0,1-3.4,1.33h-5.71V176h5.71a4.83,4.83,0,0,1,3.4,8.19Z" fill="#4d4d4d"/><path d="M367.42,174h-2.28L356.6,195.6H359l2.06-5.32h10.54l2.06,5.32H376Zm-5.61,14.28,4.47-11.59,4.48,11.59Z" fill="#4d4d4d"/><path d="M405.44,174,398.05,186,390.65,174h-2.76V195.6h2.22V177.24l7.78,12.67h.32L406,177.24V195.6h2.22V174Z" fill="#4d4d4d"/><path d="M439.91,174,432.51,186,425.12,174h-2.76V195.6h2.22V177.24l7.77,12.67h.32l7.77-12.67V195.6h2.23V174Z" fill="#4d4d4d"/><path d="M465.42,174h-2.29L454.6,195.6H457l2.06-5.32h10.54l2.06,5.32H474Zm-5.62,14.28,4.48-11.59,4.47,11.59Z" fill="#4d4d4d"/></g></g></svg>